<svg width="15" height="15" viewBox="0 0 15 15" fill="none" xmlns="http://www.w3.org/2000/svg">
<path d="M6.26241 0.633803C5.58992 -0.211268 4.49862 -0.211268 3.82613 0.633803L0.504368 4.80803C-0.168123 5.6531 -0.168123 7.02446 0.504368 7.86953L3.82613 12.0438C4.49862 12.8888 5.58992 12.8888 6.26241 12.0438L9.58418 7.86953C10.2567 7.02446 10.2567 5.6531 9.58418 4.80803L6.26241 0.633803ZM4.46991 6.33878C4.46991 6.14736 4.53042 5.96377 4.63813 5.82841C4.74585 5.69305 4.89194 5.61701 5.04427 5.61701C5.19661 5.61701 5.3427 5.69305 5.45041 5.82841C5.55813 5.96377 5.61864 6.14736 5.61864 6.33878C5.61864 6.5302 5.55813 6.71379 5.45041 6.84915C5.3427 6.9845 5.19661 7.06055 5.04427 7.06055C4.89194 7.06055 4.74585 6.9845 4.63813 6.84915C4.53042 6.71379 4.46991 6.5302 4.46991 6.33878ZM1.98097 5.61701C2.13331 5.61701 2.2794 5.69305 2.38711 5.82841C2.49483 5.96377 2.55534 6.14736 2.55534 6.33878C2.55534 6.5302 2.49483 6.71379 2.38711 6.84915C2.2794 6.9845 2.13331 7.06055 1.98097 7.06055C1.82864 7.06055 1.68255 6.9845 1.57483 6.84915C1.46712 6.71379 1.40661 6.5302 1.40661 6.33878C1.40661 6.14736 1.46712 5.96377 1.57483 5.82841C1.68255 5.69305 1.82864 5.61701 1.98097 5.61701ZM5.04427 10.91C4.89194 10.91 4.74585 10.8339 4.63813 10.6986C4.53042 10.5632 4.46991 10.3796 4.46991 10.1882C4.46991 9.99679 4.53042 9.8132 4.63813 9.67784C4.74585 9.54249 4.89194 9.46644 5.04427 9.46644C5.19661 9.46644 5.3427 9.54249 5.45041 9.67784C5.55813 9.8132 5.61864 9.99679 5.61864 10.1882C5.61864 10.3796 5.55813 10.5632 5.45041 10.6986C5.3427 10.8339 5.19661 10.91 5.04427 10.91ZM8.10757 5.61701C8.25991 5.61701 8.406 5.69305 8.51371 5.82841C8.62143 5.96377 8.68194 6.14736 8.68194 6.33878C8.68194 6.5302 8.62143 6.71379 8.51371 6.84915C8.406 6.9845 8.25991 7.06055 8.10757 7.06055C7.95524 7.06055 7.80915 6.9845 7.70143 6.84915C7.59372 6.71379 7.53321 6.5302 7.53321 6.33878C7.53321 6.14736 7.59372 5.96377 7.70143 5.82841C7.80915 5.69305 7.95524 5.61701 8.10757 5.61701ZM5.04427 3.21112C4.89194 3.21112 4.74585 3.13507 4.63813 2.99972C4.53042 2.86436 4.46991 2.68077 4.46991 2.48935C4.46991 2.29792 4.53042 2.11434 4.63813 1.97898C4.74585 1.84362 4.89194 1.76758 5.04427 1.76758C5.19661 1.76758 5.3427 1.84362 5.45041 1.97898C5.55813 2.11434 5.61864 2.29792 5.61864 2.48935C5.61864 2.68077 5.55813 2.86436 5.45041 2.99972C5.3427 3.13507 5.19661 3.21112 5.04427 3.21112ZM7.34175 13.0753C7.34175 14.1369 8.0286 15 8.8734 15H13.4684C14.3132 15 15 14.1369 15 13.0753V7.30114C15 6.23954 14.3132 5.37642 13.4684 5.37642H10.7329C11.0105 6.45907 10.8071 7.6921 10.125 8.5492L7.34175 12.0468V13.0753ZM11.1709 9.46644C11.3232 9.46644 11.4693 9.54249 11.577 9.67784C11.6847 9.8132 11.7452 9.99679 11.7452 10.1882C11.7452 10.3796 11.6847 10.5632 11.577 10.6986C11.4693 10.8339 11.3232 10.91 11.1709 10.91C11.0185 10.91 10.8724 10.8339 10.7647 10.6986C10.657 10.5632 10.5965 10.3796 10.5965 10.1882C10.5965 9.99679 10.657 9.8132 10.7647 9.67784C10.8724 9.54249 11.0185 9.46644 11.1709 9.46644Z" fill="#D9D9D9"/>
</svg>
