<svg width="15" height="15" viewBox="0 0 15 15" fill="none" xmlns="http://www.w3.org/2000/svg">
<g clip-path="url(#clip0_56_1036)">
<path d="M14.817 13.0429C14.5718 12.7977 14.1749 12.7977 13.9303 13.0429H13.9297L12.1388 11.252C12.7295 10.549 13.1597 9.77086 13.2243 9.11306C13.2575 8.76818 13.006 8.46154 12.6612 8.42768C12.3106 8.39255 12.0097 8.64652 11.9758 8.99078C11.9683 9.07229 11.9444 9.16135 11.9143 9.25288L10.161 7.50021L13.9304 3.73089C13.9987 3.6619 14.0508 3.57789 14.0815 3.48571L14.9681 0.825683C15.0434 0.599938 14.9845 0.351618 14.817 0.183573C14.649 0.0155285 14.4 -0.042789 14.1749 0.0324594L11.5149 0.919156C11.4227 0.949872 11.3386 1.00193 11.2697 1.07092L7.50036 4.8396L3.73168 1.07089C3.66334 1.0019 3.5793 0.949872 3.48651 0.919126L0.826448 0.0324594C0.602584 -0.042789 0.352383 0.0149112 0.184956 0.183573C0.0169109 0.351618 -0.0420532 0.599938 0.0331951 0.825683L0.919862 3.48571C0.950579 3.57789 1.00264 3.66193 1.07162 3.73089L4.8403 7.49957L3.07949 9.261C3.05254 9.17384 3.03184 9.08981 3.02743 9.01394C3.00674 8.66842 2.70763 8.40569 2.36337 8.42574C2.01722 8.44705 1.75512 8.74428 1.77581 9.08981C1.81532 9.74385 2.25049 10.5371 2.85939 11.2545L1.07162 13.0429C0.826448 12.7977 0.429513 12.7977 0.184956 13.0429C-0.0602187 13.2874 -0.0602187 13.6844 0.184956 13.9295L1.07162 14.8162C1.1939 14.9385 1.35442 15 1.51497 15C1.67552 15 1.83539 14.9385 1.95832 14.8162C2.20288 14.571 2.20288 14.1741 1.95832 13.9295L3.74861 12.1386C4.45157 12.7293 5.23039 13.1589 5.88817 13.2228C5.90948 13.2253 5.92955 13.226 5.94963 13.226C6.26882 13.226 6.54159 12.9839 6.57293 12.6597C6.60679 12.3155 6.35409 12.0082 6.00983 11.975C5.92832 11.9668 5.83925 11.9436 5.74772 11.9129L7.50101 10.1602L9.26182 11.921C9.17467 11.948 9.09063 11.9687 9.01476 11.9731C8.66862 11.9938 8.40587 12.291 8.42656 12.6372C8.44664 12.9695 8.72318 13.226 9.05174 13.226C9.06491 13.226 9.07746 13.226 9.09063 13.2247C9.74467 13.1852 10.5373 12.75 11.2546 12.1411L13.0431 13.9295C12.7985 14.1741 12.7985 14.571 13.0431 14.8162C13.1659 14.9385 13.3265 15 13.487 15C13.6469 15 13.8074 14.9385 13.9304 14.8162L14.817 13.9295C15.0616 13.6844 15.0616 13.2875 14.817 13.0429ZM4.64281 11.2445C4.47664 11.1096 4.31359 10.9636 4.15933 10.8099C4.15495 10.8055 4.15055 10.8005 4.14617 10.7961C4.00757 10.6569 3.87465 10.5102 3.75173 10.3616L5.727 8.38691L6.61431 9.27358L4.64281 11.2445ZM8.7658 6.105L8.38768 5.72626L12.0516 2.06228L13.3823 1.61894L12.9383 2.94895L9.27434 6.61358L8.7658 6.105Z" fill="#F9F9F9"/>
</g>
<defs>
<clipPath id="clip0_56_1036">
<rect width="15" height="15" fill="white"/>
</clipPath>
</defs>
</svg>
