<svg width="15" height="15" viewBox="0 0 15 15" fill="none" xmlns="http://www.w3.org/2000/svg">
<g clip-path="url(#clip0_56_1042)">
<path d="M10.4167 0H4.58333C3.89323 0 3.33073 0.638672 3.35677 1.41211C3.36198 1.56738 3.36719 1.72266 3.375 1.875H0.625C0.278646 1.875 0 2.18848 0 2.57812C0 5.29102 0.872396 7.17773 2.04427 8.45801C3.19792 9.7207 4.60417 10.3564 5.64062 10.6787C6.25 10.8691 6.66667 11.4404 6.66667 12.0146C6.66667 12.627 6.22396 13.125 5.67969 13.125H5C4.53906 13.125 4.16667 13.5439 4.16667 14.0625C4.16667 14.5811 4.53906 15 5 15H10C10.4609 15 10.8333 14.5811 10.8333 14.0625C10.8333 13.5439 10.4609 13.125 10 13.125H9.32031C8.77604 13.125 8.33333 12.627 8.33333 12.0146C8.33333 11.4404 8.7474 10.8662 9.35938 10.6787C10.3984 10.3564 11.8047 9.7207 12.9583 8.45801C14.1276 7.17773 15 5.29102 15 2.57812C15 2.18848 14.7214 1.875 14.375 1.875H11.625C11.6328 1.72266 11.638 1.57031 11.6432 1.41211C11.6693 0.638672 11.1068 0 10.4167 0ZM1.27344 3.28125H3.47135C3.70833 5.9209 4.23177 7.68457 4.82292 8.86523C4.17448 8.54297 3.5 8.08887 2.91667 7.4502C2.08333 6.53906 1.40625 5.22363 1.27604 3.28125H1.27344ZM12.0859 7.4502C11.5026 8.08887 10.8281 8.54297 10.1797 8.86523C10.7708 7.68457 11.2943 5.9209 11.5312 3.28125H13.7292C13.5964 5.22363 12.9193 6.53906 12.0885 7.4502H12.0859Z" fill="#D9D9D9"/>
</g>
<defs>
<clipPath id="clip0_56_1042">
<rect width="15" height="15" fill="white"/>
</clipPath>
</defs>
</svg>
